<svg xmlns="http://www.w3.org/2000/svg" viewBox="0 0 32 32" fill="none">
  <rect width="32" height="32" rx="8" fill="#2dd4bf"/>
  <path d="M8 7.5h12.5c.8 0 1.5.7 1.5 1.5v14c0 .8-.7 1.5-1.5 1.5H8c-.8 0-1.5-.7-1.5-1.5V9c0-.8.7-1.5 1.5-1.5z" fill="#0a0f1c" opacity="0.35"/>
  <path d="M10 6h13c.8 0 1.5.7 1.5 1.5v16c0 .8-.7 1.5-1.5 1.5H10c-.8 0-1.5-.7-1.5-1.5v-16C8.5 6.7 9.2 6 10 6z" fill="#0a0f1c"/>
  <path d="M23.5 6v5.5c0 .8.7 1.5 1.5 1.5h5.5L23.5 6z" fill="#0f172a" opacity="0.85"/>
  <path d="M23.5 6L30.5 13H25c-.8 0-1.5-.7-1.5-1.5V6z" fill="#2dd4bf" opacity="0.55"/>
  <rect x="12" y="12" width="8" height="1.5" rx="0.75" fill="#2dd4bf"/>
  <rect x="12" y="15.5" width="6" height="1.5" rx="0.75" fill="#2dd4bf" opacity="0.7"/>
  <rect x="12" y="19" width="4.5" height="1.5" rx="0.75" fill="#2dd4bf" opacity="0.45"/>
</svg>
